<mxfile host="Electron" modified="2024-06-23T01:34:25.932Z" agent="Mozilla/5.0 (Windows NT 10.0; Win64; x64) AppleWebKit/537.36 (KHTML, like Gecko) draw.io/24.6.1 Chrome/124.0.6367.207 Electron/30.0.6 Safari/537.36" etag="Pd9sJ-h33I9rRLyJ8rkz" version="24.6.1" type="device">
  <diagram name="Page-1" id="9Dcmjrt6YgTcU8zhTxk8">
    <mxGraphModel dx="1509" dy="931" grid="1" gridSize="10" guides="1" tooltips="1" connect="1" arrows="1" fold="1" page="1" pageScale="1" pageWidth="1654" pageHeight="1169" math="0" shadow="0">
      <root>
        <mxCell id="0" />
        <mxCell id="1" parent="0" />
        <mxCell id="7g-ataLQ1suIYr00Eo54-2" value="" style="edgeStyle=orthogonalEdgeStyle;rounded=0;orthogonalLoop=1;jettySize=auto;html=1;" parent="1" source="av1jhqOdfhLe4BwqRWrT-1" target="7g-ataLQ1suIYr00Eo54-1" edge="1">
          <mxGeometry relative="1" as="geometry" />
        </mxCell>
        <mxCell id="av1jhqOdfhLe4BwqRWrT-1" value="Load data" style="rounded=0;whiteSpace=wrap;html=1;" parent="1" vertex="1">
          <mxGeometry x="767" y="60" width="120" height="60" as="geometry" />
        </mxCell>
        <mxCell id="7g-ataLQ1suIYr00Eo54-6" value="" style="edgeStyle=orthogonalEdgeStyle;rounded=0;orthogonalLoop=1;jettySize=auto;html=1;" parent="1" source="7g-ataLQ1suIYr00Eo54-1" target="7g-ataLQ1suIYr00Eo54-5" edge="1">
          <mxGeometry relative="1" as="geometry" />
        </mxCell>
        <mxCell id="7g-ataLQ1suIYr00Eo54-1" value="Handle missing values" style="rounded=0;whiteSpace=wrap;html=1;" parent="1" vertex="1">
          <mxGeometry x="767" y="200" width="120" height="60" as="geometry" />
        </mxCell>
        <mxCell id="7g-ataLQ1suIYr00Eo54-8" value="" style="edgeStyle=orthogonalEdgeStyle;rounded=0;orthogonalLoop=1;jettySize=auto;html=1;" parent="1" source="7g-ataLQ1suIYr00Eo54-5" target="7g-ataLQ1suIYr00Eo54-7" edge="1">
          <mxGeometry relative="1" as="geometry" />
        </mxCell>
        <mxCell id="7g-ataLQ1suIYr00Eo54-5" value="Data Preprocessing&amp;nbsp;" style="rounded=0;whiteSpace=wrap;html=1;" parent="1" vertex="1">
          <mxGeometry x="767" y="340" width="120" height="60" as="geometry" />
        </mxCell>
        <mxCell id="7g-ataLQ1suIYr00Eo54-10" value="" style="edgeStyle=orthogonalEdgeStyle;rounded=0;orthogonalLoop=1;jettySize=auto;html=1;" parent="1" source="7g-ataLQ1suIYr00Eo54-7" target="7g-ataLQ1suIYr00Eo54-9" edge="1">
          <mxGeometry relative="1" as="geometry" />
        </mxCell>
        <mxCell id="7g-ataLQ1suIYr00Eo54-7" value="Split Data" style="rounded=0;whiteSpace=wrap;html=1;" parent="1" vertex="1">
          <mxGeometry x="767" y="480" width="120" height="60" as="geometry" />
        </mxCell>
        <mxCell id="7g-ataLQ1suIYr00Eo54-12" value="" style="edgeStyle=orthogonalEdgeStyle;rounded=0;orthogonalLoop=1;jettySize=auto;html=1;" parent="1" source="7g-ataLQ1suIYr00Eo54-9" target="7g-ataLQ1suIYr00Eo54-11" edge="1">
          <mxGeometry relative="1" as="geometry">
            <Array as="points">
              <mxPoint x="980" y="650" />
              <mxPoint x="980" y="90" />
            </Array>
          </mxGeometry>
        </mxCell>
        <mxCell id="7g-ataLQ1suIYr00Eo54-9" value="Train Model" style="rounded=0;whiteSpace=wrap;html=1;" parent="1" vertex="1">
          <mxGeometry x="767" y="620" width="120" height="60" as="geometry" />
        </mxCell>
        <mxCell id="7g-ataLQ1suIYr00Eo54-11" value="Test data prepare" style="rounded=0;whiteSpace=wrap;html=1;" parent="1" vertex="1">
          <mxGeometry x="1060" y="60" width="120" height="60" as="geometry" />
        </mxCell>
        <mxCell id="RZ3N7hakjw5H8dQRH_xp-3" value="" style="edgeStyle=orthogonalEdgeStyle;rounded=0;orthogonalLoop=1;jettySize=auto;html=1;" edge="1" parent="1" source="RZ3N7hakjw5H8dQRH_xp-1" target="RZ3N7hakjw5H8dQRH_xp-2">
          <mxGeometry relative="1" as="geometry" />
        </mxCell>
        <mxCell id="RZ3N7hakjw5H8dQRH_xp-1" value="Random forest" style="rounded=0;whiteSpace=wrap;html=1;" vertex="1" parent="1">
          <mxGeometry x="170" y="80" width="120" height="60" as="geometry" />
        </mxCell>
        <mxCell id="RZ3N7hakjw5H8dQRH_xp-2" value="GBDT" style="rounded=0;whiteSpace=wrap;html=1;" vertex="1" parent="1">
          <mxGeometry x="170" y="220" width="120" height="60" as="geometry" />
        </mxCell>
      </root>
    </mxGraphModel>
  </diagram>
</mxfile>
